<svg xmlns="http://www.w3.org/2000/svg" width="0" height="0"><defs><symbol id="back" fill="none" viewBox="0 0 24 24"><path stroke="currentColor" stroke-linecap="round" stroke-linejoin="round" stroke-width="1.5" d="M9.57 5.93018 3.5 12.0002l6.07 6.07M20.4999 12H3.66992"/></symbol><symbol id="bg" fill="none" viewBox="0 0 1406 795"><path stroke="currentColor" stroke-miterlimit="10" stroke-width="5" d="M831.16 128.997c-84.891 48.6-130.659 215.894-96.565 301.421 37.668 94.447 273.205 80.1 300.235 57.071 27.02-23.03-193.929-96.724-163.779-183.627 33.486-96.459 201.629-96.591 197.049-137.78-4.5-40.526-138.813-93.2558-236.94-37.085Z"/><path stroke="currentColor" stroke-miterlimit="10" stroke-width="5" d="M804.585 117.112c-99.504 42.353-142.677 244.854-98.815 340.254 49.711 108.053 305.6 68.003 343.59 50.903 32.74-14.718-179.817-113.824-154.405-218.833 27.583-114.088 179.235-132.618 167.905-159.088-12.18-28.377-141.513-62.8153-258.275-13.236Z"/><path stroke="currentColor" stroke-miterlimit="10" stroke-width="5" d="M778.01 105.254c-113.956 35.974-154.615 273.76-101.065 379.034 61.862 121.765 335.965 55.588 386.945 44.788 37.06-7.941-165.518-130.818-145.057-254.118 21.839-131.506 160.277-170.074 138.787-180.1594-16.04-17.8677-143.789-32.4531-279.61 10.4554Z"/><path stroke="currentColor" stroke-miterlimit="10" stroke-width="5" d="M751.432 93.2898C623.102 123.149 584.958 395.955 648.197 511.155c74.117 135.212 369.873 62.339 430.303 38.647 37.86-14.85-151.117-147.785-135.712-289.297C959.015 111.581 1082.39 53.6632 1052.46 59.1427c-21.89-6.5383-146.175-1.8265-301.028 34.1471Z"/><path stroke="currentColor" stroke-miterlimit="10" stroke-width="5" d="M724.853 81.4835C582.203 105.307 546.574 413.002 619.289 538.182c86.4 148.765 397.061 51.3 473.661 32.479 42.99-10.588-136.637-164.7-126.34-324.504 10.588-166.3411 121.76-236.93832 80.52-222.5648-26.41 9.1854-148.338 28.8266-322.277 57.8913Z"/><path stroke="currentColor" stroke-miterlimit="10" stroke-width="5" d="M698.306 69.598C541.309 87.5187 508.22 429.996 590.465 565.102c98.762 162.292 424.645 12.018 517.055 26.471 47.88 7.438-122.087-181.642-117.004-359.763C995.81 48.1039 1092.43-43.2463 1041.9-11.9051c-31.45 19.37654-150.57 59.506-343.594 81.5031Z"/><path stroke="currentColor" stroke-miterlimit="10" stroke-width="5" d="M671.73 57.7398C500.412 69.7574 469.892 446.858 561.613 592.05c111.176 175.765 454.637-4.024 560.407 20.197 51.75 11.859-107.49-198.53-107.65-394.969-.16-201.1766 81.26-312.8827 22.26-264.9179-37.008 30.0971-152.764 90.4767-364.9 105.3797Z"/><path stroke="currentColor" stroke-miterlimit="10" stroke-width="5" d="M645.15 45.8541C459.511 52.0482 431.638 463.879 532.782 618.997c123.512 189.238 484.888-20.462 603.768 14.055 55.75 16.174-92.86-215.524-98.28-430.2-5.54-218.5421 60.35-350.392-6.89-286.0952C988.607-42.3726 876.345 38.1511 645.15 45.8541Z"/><path stroke="currentColor" stroke-miterlimit="10" stroke-width="5" d="M618.576 33.9684c-199.959.3971-225.318 446.8506-114.618 611.9746 135.901 202.712 515.382-37.059 647.132 7.941 59.87 20.462-78.2-232.465-88.95-465.433-10.87-235.9592 39.42-387.689-36-307.298C977.492-67.0436 868.909 33.4919 618.576 33.9684Z"/><path stroke="currentColor" stroke-miterlimit="10" stroke-width="5" d="M591.998 22.11C377.586 16.8159 354.954 497.735 475.13 672.864c148.236 216.16 546.09-53.92 690.49 1.774 64.11 24.724-63.53-249.406-79.6-500.639-16.2-253.3774 18.53-424.881-65.14-328.501C966.346-91.6343 861.416 28.8865 591.998 22.11Z"/><path stroke="currentColor" stroke-miterlimit="10" stroke-width="5" d="M565.422 10.2246C336.769-.91955 316.598 514.649 446.304 699.811c160.73 229.607 577.056-70.835 733.846-4.367 68.43 28.959-48.81-266.374-70.23-535.872-21.52-270.821-2.48-461.966-94.29-349.677-60.454 73.932-161.731 214.412-450.208 200.3296Z"/><path stroke="currentColor" stroke-miterlimit="10" stroke-width="5" d="M538.844-1.66157C295.843-18.5498 278.399 531.563 417.476 726.758c173.171 243.027 607.924-87.83 777.204-10.589 72.77 33.248-34.12-283.236-60.88-571.104-26.82-288.239-23.43-498.998-123.41-370.854C944.03-140.685 846.38 19.7267 538.844-1.66157Z"/><path stroke="currentColor" stroke-miterlimit="10" stroke-width="5" d="M512.271-13.5203C254.897-36.1527 240.126 548.584 388.653 753.678c185.612 256.472 638.997-104.823 820.587-16.65 77.19 37.483-19.4-300.309-51.54-606.336-32.13-306.027-44.39-536.004-152.55-392.11-72.287 96.247-166.284 276.6184-492.879 247.8977Z"/><path stroke="currentColor" stroke-miterlimit="10" stroke-width="5" d="M485.694-25.4058C213.946-53.7559 201.849 565.366 359.8 780.625c198.08 270.005 670.21-121.765 863.95-22.791 81.66 41.744-4.66-317.304-42.17-641.569-37.4-323.127-65.3-572.957-181.694-413.233C921.692-189.63 831.348 10.6472 485.694-25.4058Z"/><path stroke="currentColor" stroke-miterlimit="10" stroke-width="5" d="M459.114-37.2903C172.993-71.358 163.993 581.964 331.049 807.573 542.1 1090.49 1032.52 668.602 1238.36 778.614c86.13 46.033 10.08-334.271-32.83-676.775-42.67-340.571-86.21-609.936-210.809-434.436C910.518-214.088 823.774 6.14806 459.114-37.2903Z"/><path stroke="currentColor" stroke-miterlimit="10" stroke-width="5" d="M432.54-49.1494C132.045-88.9348 125.692 598.878 302.146 834.467c223.438 296.473 732.734-156.177 950.664-35.1 90.66 50.294 24.83-351.265-23.48-712.0602-47.91-358.0418-107.12-646.8628-239.927-455.6388C899.35-238.547 816.232 1.62131 432.54-49.1494Z"/><path stroke="currentColor" stroke-miterlimit="10" stroke-width="5" d="M405.964-61.0352C90.963-106.512 87.363 615.819 273.319 861.44c235.827 309.71 764.051-173.144 994.021-41.241 95.3 54.609 40.21-368.312-14.13-747.2397C1200.67-302.606 1125.17-610.83 984.162-403.83 888.179-262.98 808.662-2.87915 405.964-61.0352Z"/><path stroke="currentColor" stroke-miterlimit="10" stroke-width="5" d="M379.389-72.9192C50.0149-123.505 49.0355 632.762 244.495 888.389 492.71 1211.7 1039.91 698.144 1281.91 841.006c99.71 58.871 54.79-385.307-4.8-782.4721-57.94-393.0099-148.97-720.6899-298.214-497.9919C877.011-287.411 800.987-6.63675 379.389-72.9192Z"/><path stroke="currentColor" stroke-miterlimit="10" stroke-width="5" d="M352.808-84.7789C9.06035-141.214 10.7545 649.675 215.664 915.335c260.577 336.755 826.806-207.371 1080.766-53.524 104.27 63.159 69.44-402.353 4.56-817.7043C1237.67-366.347 1131.12-713.51 973.65-475.062 865.756-311.712 793.438-11.2964 352.808-84.7789Z"/><path stroke="currentColor" stroke-miterlimit="10" stroke-width="5" d="M326.233-96.6638C-31.8886-158.923-27.6004 666.617 186.838 942.256 459.804 1292.41 1045.1 717.811 1310.97 882.591c108.84 67.474 84.2-419.242 13.89-852.831-68.82-427.898-191.19-794.808-356.449-540.372C854.349-336.461 785.895-15.9812 326.233-96.6638Z"/><path stroke="currentColor" stroke-miterlimit="10" stroke-width="5" d="M299.658-108.55C-72.837-176.712-66.0075 683.584 158.014 969.203 443.367 1332.88 1047.72 727.658 1325.5 903.291c113.45 71.788 98.71-436.237 23.27-888.1434-74.09-445.2626-211.9-831.4426-385.599-561.4686C843.339-360.762 778.406-20.5348 299.658-108.55Z"/><path stroke="currentColor" stroke-miterlimit="10" stroke-width="5" d="M957.903-581.924C832.326-385.089 770.782-25.326 273.081-120.409-113.814-194.341-104.258 700.473 129.16 996.15c297.768 377.15 921.18-258.645 1210.87-71.974 234.27 150.984-14.9-2081.756-382.127-1506.1Z"/></symbol><symbol id="calendar" fill="none" viewBox="0 0 16 16"><path stroke="currentColor" stroke-linecap="round" stroke-linejoin="round" stroke-width=".667" d="M12.6667 2.66675H3.33333C2.59695 2.66675 2 3.2637 2 4.00008v9.33332c0 .7364.59695 1.3333 1.33333 1.3333h9.33337c.7363 0 1.3333-.5969 1.3333-1.3333V4.00008c0-.73638-.597-1.33333-1.3333-1.33333M10.666 1.33325v2.66667M5.33398 1.33325v2.66667M2 6.66675h12M5.33398 9.33325h.00667M8 9.33325h.00667M10.666 9.33325h.0067M5.33398 12h.00667M8 12h.00667M10.666 12h.0067"/></symbol><symbol id="chainLink" fill="none" viewBox="0 0 16 17"><path stroke="currentColor" stroke-linecap="round" stroke-linejoin="round" d="M12 9.16667v4.00003c0 .3536-.1405.6927-.3905.9428-.2501.25-.5892.3905-.9428.3905H3.33333a1.3335 1.3335 0 0 1-.94281-.3905A1.3335 1.3335 0 0 1 2 13.1667V5.83333c0-.35362.14048-.69276.39052-.94281A1.3334 1.3334 0 0 1 3.33333 4.5h4M10 2.5h4v4M6.66699 9.83333 14.0003 2.5"/></symbol><symbol id="check" fill="none" viewBox="0 0 12 12"><path fill="currentColor" d="M11.9945 2.64158s-1.9191.63971-4.15807 3.19854C5.75738 8.15906 5.27759 9.11862 4.47796 10.398 4.398 10.3181 3.19854 7.99914 0 6.3199l1.67923-1.59927s1.51931 1.03953 2.55884 2.95865c0 0 2.6388-4.07814 7.75643-6.07723z"/></symbol><symbol id="close" fill="none" viewBox="0 0 16 16"><path stroke="currentColor" stroke-linecap="round" stroke-linejoin="round" d="m12 4-8 8M4 4l8 8"/></symbol><symbol id="copied" fill="none" viewBox="0 0 13 13"><path fill="currentColor" d="M4.94568 12.2646c.46484 0 .82715-.1777 1.07324-.5537L12.39 1.96973c.1777-.27344.2529-.52637.2529-.76563 0-.64258-.4785-1.10742-1.1347-1.10742-.4512 0-.7315.16406-1.0049.59473L4.9115 9.50977 2.07458 5.98926c-.25292-.30078-.52636-.4375-.90917-.4375-.6631 0-1.1416.47168-1.1416 1.11426 0 .2871.08886.54003.33496.82031L3.8861 11.7588c.29394.3486.62207.5058 1.05957.5058"/></symbol><symbol id="copy" fill="none" viewBox="0 0 17 16"><path fill="currentColor" d="M11.1666 8.60016v2.80004c0 2.3333-.9333 3.2666-3.26668 3.2666h-2.8c-2.33333 0-3.26667-.9333-3.26667-3.2666V8.60016c0-2.33333.93334-3.26666 3.26667-3.26666h2.8c2.33338 0 3.26668.93333 3.26668 3.26666"/><path fill="currentColor" d="M11.8998 1.3335H9.09984c-2.05538 0-3.01934.72939-3.22017 2.49267-.04201.36889.2635.67399.63478.67399h1.38539c2.79996 0 4.09996 1.3 4.09996 4.1v1.3854c0 .37124.3051.67674.674.63474 1.7633-.2008 2.4927-1.16475 2.4927-3.22014v-2.8c0-2.33333-.9333-3.26666-3.2667-3.26666"/></symbol><symbol id="down" fill="none" viewBox="0 0 16 15"><path fill="#fff" fill-opacity=".01" d="M.7998.30005h14.4v14.4h-14.4z"/><path fill="currentColor" fill-rule="evenodd" d="M7.99969 2.21997c.26509 0 .48.21491.48.48v8.44123l3.02051-3.02064c.1875-.18746.4915-.18746.6789 0s.1874.49137 0 .67882l-3.84 3.84002a.48.48 0 0 1-.33941.1406.48.48 0 0 1-.33941-.1406l-3.84-3.84002c-.18746-.18745-.18746-.49137 0-.67882s.49137-.18746.67882 0l3.02059 3.02064V2.69997c0-.26509.21491-.48.48-.48" clip-rule="evenodd"/></symbol><symbol id="download" fill="none" viewBox="0 0 16 16"><path fill="currentColor" d="M7.90156 10.3281c.0117.015.02663.027.04369.0354a.1251.1251 0 0 0 .1095 0 .126.126 0 0 0 .04369-.0354l1.75-2.21404c.06406-.08125.00625-.20156-.09844-.20156H8.59219V2.625c0-.06875-.05625-.125-.125-.125h-.9375c-.06875 0-.125.05625-.125.125v5.28594H6.25c-.10469 0-.1625.12031-.09844.20156zm5.81724-.54685h-.9376c-.0687 0-.125.05625-.125.125v2.40625H3.34375V9.90625c0-.06875-.05625-.125-.125-.125h-.9375c-.06875 0-.125.05625-.125.125V13c0 .2766.22344.5.5.5H13.3438c.2765 0 .5-.2234.5-.5V9.90625c0-.06875-.0563-.125-.125-.125"/></symbol><symbol id="exchange" fill="none" viewBox="0 0 16 16"><path fill="#fff" d="M14.6666 8.00016c0 3.68194-2.9848 6.66664-6.66668 6.66664-3.6819 0-6.66667-2.9847-6.66667-6.66664 0-3.6819 2.98477-6.66666 6.66667-6.66666 3.68188 0 6.66668 2.98476 6.66668 6.66666" opacity=".4"/><path fill="#fff" d="M11.9001 9.01988c-.0534-.12-.1467-.22001-.2734-.27334-.06-.02667-.1266-.04-.1933-.04H4.56006c-.27333 0-.5.22667-.5.5 0 .27334.22667.5.5.5h5.66664L9.05339 10.8799c-.19334.1933-.19334.5133 0 .7066.1.1.22666.1467.35333.1467s.25335-.0467.35335-.1467l2.02663-2.02662c.0467-.04667.08-.1.1067-.16.0533-.12.0533-.26.0067-.38M11.4334 6.28672H5.76673L6.94007 5.1134c.19333-.19333.19333-.51335 0-.70668-.19334-.19333-.51334-.19333-.70667 0L4.20673 6.43339c-.04667.04667-.08.10002-.10667.16002-.05333.11999-.05333.25998 0 .37998s.14667.22.27333.27334c.06.02666.12668.03999.19334.03999h6.87337c.2733 0 .5-.22666.5-.5 0-.27333-.2267-.5-.5067-.5"/></symbol><symbol id="field" fill="none" viewBox="0 0 81 81"><path fill="currentColor" d="M81 40c0 22.0914-17.9086 40-40 40S1 62.0914 1 40 18.9086 0 41 0s40 17.9086 40 40"/><path fill="#282828" fill-rule="evenodd" d="M57.6174 23.6174c-.8232-.8232-2.1578-.8232-2.9809 0L41.1078 37.1461 27.5982 23.6365c-.8231-.8232-2.1577-.8232-2.9808 0-.8232.8231-.8232 2.1577 0 2.9809l13.5095 13.5095-13.0365 13.0365c-.8231.8231-.8231 2.1577 0 2.9809.8232.8231 2.1578.8231 2.9809 0l13.0365-13.0365 13.0556 13.0556c.8231.8231 2.1577.8231 2.9809 0 .8231-.8231.8231-2.1577 0-2.9809L44.0887 40.1269l13.5287-13.5287c.8231-.8231.8231-2.1577 0-2.9808" clip-rule="evenodd"/></symbol><symbol id="file" fill="none" viewBox="0 0 16 16"><path stroke="currentColor" stroke-linecap="round" stroke-linejoin="round" d="M9.66602 1.3335H3.99935a1.33333 1.33333 0 0 0-1.33333 1.33333V13.3335c0 .3536.14047.6928.39052.9428a1.333 1.333 0 0 0 .94281.3905h7.99995a1.33326 1.33326 0 0 0 1.3334-1.3333V5.00016z"/><path stroke="currentColor" stroke-linecap="round" stroke-linejoin="round" d="M9.33398 1.3335v4H13.334M10.6673 8.6665H5.33398M10.6673 11.3335H5.33398M6.66732 6H5.33398"/></symbol><symbol id="github" fill="none" viewBox="0 0 16 16"><g clip-path="url(#clip0_16_1796)"><path fill="currentColor" d="M8.00007.1875C3.58233.1875 0 3.76917 0 8.18757 0 11.7222 2.29226 14.721 5.47093 15.7788c.39982.0741.54661-.1735.54661-.3848 0-.1908-.00742-.821-.01087-1.4895-2.22562.484-2.69526-.9439-2.69526-.9439-.36391-.9247-.88826-1.1706-.88826-1.1706-.72585-.4965.05471-.4863.05471-.4863.80335.0564 1.22635.8244 1.22635.8244.71353 1.2231 1.87151.8695 2.32803.6651.0718-.5171.27913-.87.50792-1.0698-1.77692-.2023-3.64486-.8883-3.64486-3.95367 0-.87342.31252-1.58708.82428-2.14733-.08307-.2015-.3569-1.01518.0775-2.11713 0 0 .67179-.21501 2.20058.82004.63815-.17726 1.32253-.26615 2.00241-.26919.67987.00304 1.36478.09193 2.00413.26919 1.5269-1.03505 2.1978-.82004 2.1978-.82004.4355 1.10195.1615 1.91563.0784 2.11713.513.56025.8234 1.27391.8234 2.14733 0 3.07267-1.8715 3.74927-3.65297 3.94727.28695.2483.54263.7352.54263 1.4815 0 1.0705-.00927 1.932-.00927 2.1955 0 .2128.14401.4623.54951.3837C13.7107 14.7187 16 11.721 16 8.18757 16 3.76917 12.4182.1875 8.00007.1875M2.99628 11.5838c-.01761.0397-.08014.0516-.13711.0243-.05802-.0261-.09061-.0802-.0718-.1201.01722-.041.07988-.0523.13777-.0249.05816.0261.09128.0808.07114.1207m.39352.3511c-.03815.0354-.11274.0189-.16335-.037-.05232-.0557-.06213-.1303-.02344-.1662.03934-.0354.11167-.0188.16414.0369.05232.0565.06253.1305.02265.1663m.26997.4492c-.04902.0341-.12917.0022-.17872-.069-.04901-.0711-.04901-.1564.00106-.1906.04968-.0342.12864-.0035.17885.0672.04888.0723.04888.1576-.00119.1924m.45656.5203c-.04385.0484-.13724.0354-.2056-.0306-.06995-.0645-.08942-.156-.04544-.2044.04438-.0485.13831-.0348.20719.0306.06942.0644.09062.1566.04385.2044m.59008.1757c-.01934.0627-.1093.0911-.19991.0645-.09048-.0274-.1497-.1008-.13142-.1641.01881-.0631.10916-.0928.20044-.0643.09035.0273.1497.1002.13089.1639m.67152.0745c.00226.066-.07458.1207-.1697.1219-.09565.0021-.17302-.0513-.17408-.1162 0-.0666.07512-.1208.17077-.1224.09512-.0019.17301.0511.17301.1167m.6597-.0253c.0114.0644-.05471.1305-.14917.1481-.09286.017-.17884-.0228-.19063-.0866-.01153-.066.05577-.1321.14851-.1492.09459-.0164.17924.0223.19129.0877"/></g><defs><clipPath id="clip0_16_1796"><path fill="#fff" d="M0 .1875h16v15.625H0z"/></clipPath></defs></symbol><symbol id="info" fill="none" viewBox="0 0 16 16"><path fill="#fff" d="M14.6666 8.00016c0 3.68194-2.9848 6.66664-6.66668 6.66664-3.6819 0-6.66667-2.9847-6.66667-6.66664 0-3.6819 2.98477-6.66666 6.66667-6.66666 3.68188 0 6.66668 2.98476 6.66668 6.66666" opacity=".4"/><path fill="#fff" d="M8 9.16683c.27333 0 .5-.22667.5-.5V5.3335c0-.27334-.22667-.5-.5-.5s-.5.22666-.5.5v3.33333c0 .27333.22667.5.5.5M8.61325 10.4134c-.03333-.08-.08-.1533-.14-.22-.06666-.06-.14-.1066-.22-.14-.16-.06665-.34666-.06665-.50666 0-.08.0334-.15334.08-.22.14-.06.0667-.10667.14-.14.22s-.05334.1667-.05334.2534c0 .0866.02.1733.05334.2533.03333.0867.08.1533.14.22.06666.06.14.1067.22.14s.16666.0533.25333.0533.17333-.02.25333-.0533.15334-.08.22-.14c.06-.0667.10667-.1333.14-.22.03334-.08.05334-.1667.05334-.2533 0-.0867-.02-.1734-.05334-.2534"/></symbol><symbol id="left" fill="none" viewBox="0 0 14 14"><path stroke="currentColor" stroke-linecap="round" stroke-linejoin="round" d="M8.75 10.5 5.25 7l3.5-3.5"/></symbol><symbol id="link" fill="none" viewBox="0 0 16 16"><path fill="currentColor" fill-opacity=".01" d="M0 0h16v16H0z"/><path fill="currentColor" fill-rule="evenodd" d="M9.07986 3.20575c.72144-.4901 1.63364-.4997 2.31134-.05464.1539.10106.3182.26145.7575.7008.4394.43934.5998.60368.7008.75757.4451.6777.4355 1.58988-.0546 2.31132-.1119.16466-.285.34116-.7405.79663l-.6599.65997c-.2082.20827-.2082.54596 0 .75424.2083.20828.546.20828.7542 0l.66-.65997.0458-.04578c.3943-.39417.6465-.64639.8228-.9057.7202-1.06023.7574-2.44019.0638-3.49623-.1691-.25756-.4156-.50397-.7905-.87869l-.0476-.04761-.0476-.04763c-.3747-.37485-.6211-.62137-.8787-.79051-1.056-.69354-2.436-.65635-3.49623.06389-.25931.17615-.51154.42847-.90572.82275l-.04576.04579-.65997.65996c-.20829.20828-.20829.54597 0 .75424.20828.20828.54596.20828.75424 0l.65997-.65996c.45547-.45547.63197-.62859.79663-.74044M4.60628 7.62314c.20828-.20827.20828-.54597 0-.75425-.20829-.20827-.54597-.20827-.75425 0l-.65997.65997-.04577.04577c-.39429.39417-.6466.6464-.82276.90572-.72025 1.06023-.75742 2.44015-.06388 3.49625.16914.2575.41564.5039.79051.8786l.04762.0477.0476.0476c.37472.3748.62114.6214.87869.7905 1.05606.6935 2.436.6564 3.49624-.0639.2593-.1761.51154-.4285.9057-.8227l.04578-.0458.65997-.6599c.20828-.2084.20828-.5461 0-.7543-.20829-.2083-.54597-.2083-.75425 0l-.65997.66c-.45546.4554-.63196.6286-.79661.7404-.72146.4901-1.63363.4997-2.31133.0547-.15388-.1011-.31822-.2616-.75757-.7008-.43935-.4394-.59973-.6038-.7008-.7577-.44506-.6776-.43546-1.58982.05463-2.31127.11185-.16465.28499-.34115.74045-.79662zm5.65732-1.13188c.2083-.20828.2083-.54597 0-.75425s-.54594-.20828-.75423 0L5.73814 9.50825c-.20828.20828-.20828.54595 0 .75425s.54596.2083.75425 0z" clip-rule="evenodd"/></symbol><symbol id="mask" fill="none" viewBox="0 0 659 72"><path fill="#000" d="M.5 1.18182h23.5909L40.3182 40.7273h.8182L57.3636 1.18182h23.5909V71H62.4091V30.6364h-.5455L46.3182 70.4545H35.1364L19.5909 30.3636h-.5454V71H.5zM108.074 71H87.6193L110.665 1.18182h25.909L159.619 71h-20.454l-15.273-50.5909h-.545zm-3.818-27.5455h38.454v14.1819h-38.454zM201.261 23c-.181-2.2727-1.034-4.0455-2.556-5.3182-1.5-1.2727-3.785-1.9091-6.853-1.9091-1.954 0-3.557.2387-4.807.7159q-1.8405.6819-2.727 1.875c-.591.7955-.898 1.7046-.92 2.7273-.046.8409.102 1.6023.443 2.2841.364.6591.932 1.2614 1.704 1.8068.773.5227 1.762 1 2.966 1.4318 1.205.4319 2.637.8182 4.296 1.1591L198.534 29c3.864.8182 7.171 1.8977 9.921 3.2386s5 2.9205 6.75 4.7387c1.75 1.7954 3.034 3.8182 3.852 6.0682.841 2.25 1.273 4.7045 1.295 7.3636-.022 4.5909-1.17 8.4773-3.443 11.6591s-5.523 5.6023-9.75 7.2613c-4.204 1.6591-9.261 2.4887-15.17 2.4887-6.069 0-11.364-.8977-15.887-2.6932-4.5-1.7955-8-4.5568-10.5-8.2841-2.477-3.75-3.727-8.5454-3.75-14.3864h18c.114 2.1364.648 3.9319 1.603 5.3864.954 1.4546 2.295 2.5568 4.022 3.3068 1.75.75 3.83 1.125 6.239 1.125q3.0345 0 5.079-.75c1.364-.5 2.398-1.1932 3.103-2.0795.704-.8864 1.068-1.8977 1.091-3.0341-.023-1.0682-.375-2-1.057-2.7955-.659-.8181-1.75-1.5454-3.273-2.1818-1.523-.6591-3.579-1.2727-6.17-1.8409l-6.955-1.5c-6.182-1.3409-11.057-3.5795-14.625-6.7159-3.545-3.1591-5.307-7.4659-5.284-12.9205-.023-4.4318 1.159-8.3068 3.545-11.625 2.41-3.34087 5.739-5.94314 9.989-7.80678 4.273-1.86363 9.171-2.79545 14.693-2.79545q8.4555 0 14.625 2.82955c4.114 1.88636 7.284 4.54545 9.512 7.97728 2.25 3.4091 3.386 7.3977 3.409 11.9659zm26.301 48V1.18182h18.955V29.4091h.955l21-28.22728h22.09l-23.59 31.09088L291.108 71h-22.636L252.79 44.8182 246.517 53v18zm108.887-9.5455V11h15.273v50.4545zm-17.591-17.5909V28.5909h50.454v15.2727zm80.233-27.4091V1.18182h60.682V16.4545h-21V71h-18.682V16.4545zM466.906 71V1.18182h50.318V16.4545h-31.363v12h28.773v15.2728h-28.773v12h31.227V71zm80.037-69.81818L558.398 21.5h.545l11.591-20.31818h21.136L570.807 36.0909 592.489 71h-21.682l-11.864-20.7273h-.545L546.534 71h-21.545l21.409-34.9091L525.67 1.18182zm50.992 15.27268V1.18182h60.681V16.4545h-21V71h-18.681V16.4545z"/></symbol><symbol id="medium" fill="none" viewBox="0 0 16 16"><g clip-path="url(#clip0_16_1799)"><path fill="currentColor" d="M13.6 0H2.4C1.07452 0 0 1.07452 0 2.4v11.2C0 14.9255 1.07452 16 2.4 16h11.2c1.3255 0 2.4-1.0745 2.4-2.4V2.4C16 1.07452 14.9255 0 13.6 0"/><path fill="#000" d="M3.90625 5.40625c0-.125-.0625-.28125-.15625-.34375L2.78125 3.875v-.1875h3.0625L8.1875 8.875l2.0937-5.1875h2.9063v.1875l-.8437.8125c-.0626.03125-.0938.125-.0938.21875v5.93755c0 .0937.0312.1874.0938.25l.8437.7812v.1875H9.03125v-.1875l.84375-.8125c.09375-.0937.09375-.125.09375-.25V6.03125l-2.375 5.99995h-.3125l-2.75-5.99995v4.03125c-.03125.1563.03125.3437.15625.4687l1.09375 1.3438v.1562h-3.125v-.1562L3.75 10.5312c.125-.125.1875-.3124.15625-.4687z"/></g><defs><clipPath id="clip0_16_1799"><path fill="#fff" d="M0 0h16v16H0z"/></clipPath></defs></symbol><symbol id="note" fill="none" viewBox="0 0 10 12"><path fill="currentColor" d="M4.28913.66675H9.2669a.71113.71113 0 0 1 .71112.71111v7.82222H1.44468v.71111h8.53334v.71111a.711.711 0 0 1-.20828.5028.711.711 0 0 1-.50284.2083H.73357a.711.711 0 0 1-.50283-.2083.711.711 0 0 1-.20828-.5028V1.37786A.7111.7111 0 0 1 .73357.66675h.71111V4.9334l1.42223-1.06666 1.42222 1.06666z"/></symbol><symbol id="popField" fill="none" viewBox="0 0 16 17"><path stroke="#F43F5E" stroke-linecap="round" stroke-linejoin="round" d="M7.99967 15.1666c3.68193 0 6.66663-2.9847 6.66663-6.66662 0-3.6819-2.9847-6.66667-6.66663-6.66667-3.68189 0-6.66666 2.98477-6.66666 6.66667 0 3.68192 2.98477 6.66662 6.66666 6.66662"/><path stroke="currentColor" stroke-linecap="round" stroke-linejoin="round" d="m10 6.5-4 4M6 6.5l4 4"/></symbol><symbol id="popSuccess" fill="none" viewBox="0 0 16 16"><g stroke="currentColor" stroke-linecap="round" stroke-linejoin="round" clip-path="url(#clip0_419_6633)"><path d="M7.99967 14.6667c3.68203 0 6.66663-2.9847 6.66663-6.66666 0-3.682-2.9846-6.66667-6.66663-6.66667-3.682 0-6.66666 2.98467-6.66666 6.66667 0 3.68196 2.98466 6.66666 6.66666 6.66666"/><path d="m6 7.99996 1.33333 1.33333L10 6.66663"/></g><defs><clipPath id="clip0_419_6633"><path fill="#fff" d="M0 0h16v16H0z"/></clipPath></defs></symbol><symbol id="right" fill="none" viewBox="0 0 12 13"><path stroke="currentColor" stroke-linecap="round" stroke-linejoin="round" stroke-width=".75" d="m4.45508 10.46 3.26-3.25996c.385-.385.385-1.015 0-1.4l-3.26-3.26"/></symbol><symbol id="success" fill="none" viewBox="0 0 81 81"><circle cx="40.5" cy="40.5" r="40" fill="currentColor"/><path stroke="#091222" stroke-linecap="round" stroke-linejoin="round" stroke-width="4.624" d="M59.6905 27.292 34.8928 52.0897 23.6211 40.818"/></symbol><symbol id="sw-jedi-crest" viewBox="0 0 576 512"><path fill="#fff" d="m554.9 293.1-58.88 58.88h40C493.2 446.1 398.2 511.1 287.1 512 176.8 511.9922 81.9 446.12 40 352h40l-58.87-58.9c-3.38-18-5.13-34.5-5.13-51.9 0-5.75.75-11.5 1-17.25h47L22.75 182.7C37.38 117.1 75.86 59.37 130.6 20.5c2.75-2 6.021-3.005 9.272-3.005 5.5 0 10.5 2.75 13.5 7.25 3.125 4.375 3.625 10.13 1.625 15.13C148.5 56.12 145.1 73.62 145.1 91.12c0 45.13 21.13 86.63 57.75 113.8 4.05 2.78 6.55 7.48 6.65 12.28.25 5-1.751 9.752-5.501 13-32.75 29.38-47.5 74-38.5 117.1 9.751 48.38 48.88 87.13 97.26 96.5l2.5-65.37-27.13 18.5c-3.125 2-7.251 1.75-10-.75-2.75-2.625-3.25-6.75-1.375-10l20.13-33.75-42.13-8.627c-3.625-.875-6.375-4.125-6.375-7.875s2.75-7 6.375-7.875l42.13-8.75L226.8 285.6c-1.9-3.1-1.4-7.2 1.3-9.9 2.75-2.5 6.876-2.875 10-.75l30.38 20.63 11.49-287.8C280.3 3.461 283.7.0156 287.1 0c4.237.0156 7.759 3.461 8.009 7.828l11.49 287.8 30.38-20.63c3.125-2.125 7.251-1.75 10 .75 2.75 2.625 3.25 6.75 1.375 9.875l-20.13 33.75 42.13 8.75c3.625.875 6.375 4.125 6.375 7.875s-2.75 7-6.375 7.875l-42.13 8.627 20.13 33.75c1.875 3.25 1.375 7.375-1.375 10-2.75 2.5-6.876 2.75-10 .75l-27.13-18.5 2.5 65.37c48.38-9.375 87.51-48.13 97.26-96.5 9.001-43.13-5.75-87.75-38.5-117.1-3.75-3.25-5.751-8.002-5.501-13 .125-4.875 2.626-9.5 6.626-12.38 36.63-27.13 57.75-68.63 57.75-113.8 0-17.5-3.375-35-9.875-51.25-2-5-1.5-10.75 1.625-15.13 3-4.5 8.001-7.25 13.5-7.25 3.25 0 6.474.9546 9.224 2.955 54.75 38.88 93.28 96.67 107.9 162.3l-41.25 41.25h47c.2501 5.75.9965 11.5.9965 17.25C559.1 258.6 558.3 275.1 554.9 293.1"/></symbol><symbol id="telegram" fill="none" viewBox="0 0 16 16"><path fill="currentColor" d="M14.9066 1.37066.4166 6.97785a.18.18 0 0 0-.025.01188c-.1175.06656-.9375.56812.21875 1.01781l.01188.00437L4.07254 9.1266a.19.19 0 0 0 .15906-.01938l8.5578-5.33937a.188.188 0 0 1 .0688-.02594c.119-.01968.4618-.05656.245.21875-.2453.3125-6.09066 5.55063-6.73941 6.13154a.197.197 0 0 0-.06469.1303l-.28312 3.375a.2214.2214 0 0 0 .02329.0991.221.221 0 0 0 .06514.0781.2148.2148 0 0 0 .13086.0325.2156.2156 0 0 0 .12446-.0518l2.05-1.8322a.19.19 0 0 1 .11707-.0482.1903.1903 0 0 1 .12136.036l3.57654 2.5968.0116.0079c.0866.0534 1.0216.5975 1.2916-.6175l2.4687-11.7391c.0034-.03719.0369-.44594-.2553-.6875-.3069-.2525-.7413-.125-.8066-.11125a.19.19 0 0 0-.0281.01031"/></symbol><symbol id="top" fill="none" viewBox="0 0 16 16"><path stroke="currentColor" stroke-linecap="round" stroke-linejoin="round" stroke-opacity=".5" d="M12 10 8 6l-4 4"/></symbol><symbol id="twitter" fill="none" viewBox="0 0 16 14"><g clip-path="url(#clip0_16_1793)"><path fill="currentColor" d="M16 2.05939c-.5887.26108-1.2213.43753-1.8854.51689C14.7924 2.17 15.3129 1.5267 15.558.76021c-.6343.37614-1.3368.64933-2.0845.79658C12.8747.91881 12.0216.52014 11.0774.52014c-1.81286 0-3.28265 1.46973-3.28265 3.28252 0 .25727.02909.50782.08504.74806-2.72817-.13689-5.14693-1.44374-6.76595-3.42971C.83128 1.60583.6694 2.16971.6694 2.77128c0 1.13883.57957 2.14358 1.46036 2.73222-.53813-.01703-1.04425-.16469-1.48687-.41055-.00023.01369-.00023.02745-.00023.04126 0 1.59046 1.13151 2.91721 2.63319 3.21873-.27548.07503-.56547.11511-.86488.11511-.2115 0-.41716-.02054-.61755-.05887.41769 1.30416 1.62997 2.25322 3.06639 2.27972-1.12343.8804-2.53885 1.4052-4.07675 1.4052A6.68 6.68 0 0 1 0 12.0482c1.45269.9314 3.17817 1.4748 5.03193 1.4748 6.03787 0 9.33957-5.00192 9.33957-9.3397 0-.14233-.0032-.2839-.0095-.42465.6413-.46281 1.1979-1.04097 1.638-1.69926"/></g><defs><clipPath id="clip0_16_1793"><path fill="#fff" d="M0 .46875h16v13.063H0z"/></clipPath></defs></symbol><symbol id="x" fill="none" viewBox="0 0 16 16"><path fill="currentColor" fill-rule="evenodd" d="M3.24993 3.125h-.74212l.44023.59745 3.75557 5.09684-3.95368 4.18081h1.5L7.3649 9.71675l2.58314 3.50565.11236.1526h3.4474l-.4598-.6025-3.82591-5.01332 4.27781-4.50909-1.5222-.0079-3.43264 3.62985L5.79804 3.2725l-.11256-.1475H3.24993m7.18947 9.5-6.44734-8.75h1.32233l6.67761 8.75z" clip-rule="evenodd"/></symbol><symbol id="youtube" fill="none" viewBox="0 0 16 12"><g clip-path="url(#clip0_16_1804)"><path fill="currentColor" d="M15.6466 2.12967c-.1867-.69017-.7258-1.2293-1.416-1.41605C12.989.375 7.99177.375 7.99177.375S2.99456.38526 1.75295.72388C1.06279.91064.52365 1.44976.3369 2.13993c-.37556 2.20616-.52127 5.56774.01026 7.68565.18676.69012.72589 1.22932 1.41605 1.41602 1.24161.3386 6.23882.3386 6.23882.3386s4.99717 0 6.23887-.3386c.6901-.1867 1.2292-.7259 1.416-1.41602.3961-2.20924.5182-5.56876-.0103-7.69591"/><path fill="#000" d="m6.40137 8.37879 4.14553-2.40113-4.14553-2.40112z"/></g></symbol></defs></svg>