<svg width="1406" height="795" viewBox="0 0 1406 795" fill="none" xmlns="http://www.w3.org/2000/svg">
<path d="M831.16 128.997C746.269 177.597 700.501 344.891 734.595 430.418C772.263 524.865 1007.8 510.518 1034.83 487.489C1061.85 464.459 840.901 390.765 871.051 303.862C904.537 207.403 1072.68 207.271 1068.1 166.082C1063.6 125.556 929.287 72.8262 831.16 128.997Z" stroke="currentColor" stroke-width="5" stroke-miterlimit="10"/>
<path d="M804.585 117.112C705.081 159.465 661.908 361.966 705.77 457.366C755.481 565.419 1011.37 525.369 1049.36 508.269C1082.1 493.551 869.543 394.445 894.955 289.436C922.538 175.348 1074.19 156.818 1062.86 130.348C1050.68 101.971 921.347 67.5327 804.585 117.112Z" stroke="currentColor" stroke-width="5" stroke-miterlimit="10"/>
<path d="M778.01 105.254C664.054 141.228 623.395 379.014 676.945 484.288C738.807 606.053 1012.91 539.876 1063.89 529.076C1100.95 521.135 898.372 398.258 918.833 274.958C940.672 143.452 1079.11 104.884 1057.62 94.7986C1041.58 76.9309 913.831 62.3455 778.01 105.254Z" stroke="currentColor" stroke-width="5" stroke-miterlimit="10"/>
<path d="M751.432 93.2898C623.102 123.149 584.958 395.955 648.197 511.155C722.314 646.367 1018.07 573.494 1078.5 549.802C1116.36 534.952 927.383 402.017 942.788 260.505C959.015 111.581 1082.39 53.6632 1052.46 59.1427C1030.57 52.6044 906.285 57.3162 751.432 93.2898Z" stroke="currentColor" stroke-width="5" stroke-miterlimit="10"/>
<path d="M724.853 81.4835C582.203 105.307 546.574 413.002 619.289 538.182C705.689 686.947 1016.35 589.482 1092.95 570.661C1135.94 560.073 956.313 405.961 966.61 246.157C977.198 79.8159 1088.37 9.21868 1047.13 23.5922C1020.72 32.7776 898.792 52.4188 724.853 81.4835Z" stroke="currentColor" stroke-width="5" stroke-miterlimit="10"/>
<path d="M698.306 69.598C541.309 87.5187 508.22 429.996 590.465 565.102C689.227 727.394 1015.11 577.12 1107.52 591.573C1155.4 599.011 985.433 409.931 990.516 231.81C995.81 48.1039 1092.43 -43.2463 1041.9 -11.9051C1010.45 7.47144 891.33 47.6009 698.306 69.598Z" stroke="currentColor" stroke-width="5" stroke-miterlimit="10"/>
<path d="M671.73 57.7398C500.412 69.7574 469.892 446.858 561.613 592.05C672.789 767.815 1016.25 588.026 1122.02 612.247C1173.77 624.106 1014.53 413.717 1014.37 217.278C1014.21 16.1014 1095.63 -95.6047 1036.63 -47.6399C999.622 -17.5428 883.866 42.8368 671.73 57.7398Z" stroke="currentColor" stroke-width="5" stroke-miterlimit="10"/>
<path d="M645.15 45.8541C459.511 52.0482 431.638 463.879 532.782 618.997C656.294 808.235 1017.67 598.535 1136.55 633.052C1192.3 649.226 1043.69 417.528 1038.27 202.852C1032.73 -15.6901 1098.62 -147.54 1031.38 -83.2432C988.607 -42.3726 876.345 38.1511 645.15 45.8541Z" stroke="currentColor" stroke-width="5" stroke-miterlimit="10"/>
<path d="M618.576 33.9684C418.617 34.3655 393.258 480.819 503.958 645.943C639.859 848.655 1019.34 608.884 1151.09 653.884C1210.96 674.346 1072.89 421.419 1062.14 188.451C1051.27 -47.5082 1101.56 -199.238 1026.14 -118.847C977.492 -67.0436 868.909 33.4919 618.576 33.9684Z" stroke="currentColor" stroke-width="5" stroke-miterlimit="10"/>
<path d="M591.998 22.11C377.586 16.8159 354.954 497.735 475.13 672.864C623.366 889.024 1021.22 618.944 1165.62 674.638C1229.73 699.362 1102.09 425.232 1086.02 173.999C1069.82 -79.3784 1104.55 -250.882 1020.88 -154.502C966.346 -91.6343 861.416 28.8865 591.998 22.11Z" stroke="currentColor" stroke-width="5" stroke-miterlimit="10"/>
<path d="M565.422 10.2246C336.769 -0.919546 316.598 514.649 446.304 699.811C607.034 929.418 1023.36 628.976 1180.15 695.444C1248.58 724.403 1131.34 429.07 1109.92 159.572C1088.4 -111.249 1107.44 -302.394 1015.63 -190.105C955.176 -116.173 853.899 24.307 565.422 10.2246Z" stroke="currentColor" stroke-width="5" stroke-miterlimit="10"/>
<path d="M538.844 -1.66157C295.843 -18.5498 278.399 531.563 417.476 726.758C590.647 969.785 1025.4 638.928 1194.68 716.169C1267.45 749.417 1160.56 432.933 1133.8 145.065C1106.98 -143.174 1110.37 -353.933 1010.39 -225.789C944.03 -140.685 846.38 19.7267 538.844 -1.66157Z" stroke="currentColor" stroke-width="5" stroke-miterlimit="10"/>
<path d="M512.271 -13.5203C254.897 -36.1527 240.126 548.584 388.653 753.678C574.265 1010.15 1027.65 648.855 1209.24 737.028C1286.43 774.511 1189.84 436.719 1157.7 130.692C1125.57 -175.335 1113.31 -405.312 1005.15 -261.418C932.863 -165.171 838.866 15.2004 512.271 -13.5203Z" stroke="currentColor" stroke-width="5" stroke-miterlimit="10"/>
<path d="M485.694 -25.4058C213.946 -53.7559 201.849 565.366 359.8 780.625C557.88 1050.63 1030.01 658.86 1223.75 757.834C1305.41 799.578 1219.09 440.53 1181.58 116.265C1144.18 -206.862 1116.28 -456.692 999.886 -296.968C921.692 -189.63 831.348 10.6472 485.694 -25.4058Z" stroke="currentColor" stroke-width="5" stroke-miterlimit="10"/>
<path d="M459.114 -37.2903C172.993 -71.358 163.993 581.964 331.049 807.573C542.1 1090.49 1032.52 668.602 1238.36 778.614C1324.49 824.647 1248.44 444.343 1205.53 101.839C1162.86 -238.732 1119.32 -508.097 994.721 -332.597C910.518 -214.088 823.774 6.14806 459.114 -37.2903Z" stroke="currentColor" stroke-width="5" stroke-miterlimit="10"/>
<path d="M432.54 -49.1494C132.045 -88.9348 125.692 598.878 302.146 834.467C525.584 1130.94 1034.88 678.29 1252.81 799.367C1343.47 849.661 1277.64 448.102 1229.33 87.3068C1181.42 -270.735 1122.21 -559.556 989.403 -368.332C899.35 -238.547 816.232 1.62131 432.54 -49.1494Z" stroke="currentColor" stroke-width="5" stroke-miterlimit="10"/>
<path d="M405.964 -61.0352C90.963 -106.512 87.363 615.819 273.319 861.44C509.146 1171.15 1037.37 688.296 1267.34 820.199C1362.64 874.808 1307.55 451.887 1253.21 72.9593C1200.67 -302.606 1125.17 -610.83 984.162 -403.83C888.179 -262.98 808.662 -2.87915 405.964 -61.0352Z" stroke="currentColor" stroke-width="5" stroke-miterlimit="10"/>
<path d="M379.389 -72.9192C50.0149 -123.505 49.0355 632.762 244.495 888.389C492.71 1211.7 1039.91 698.144 1281.91 841.006C1381.62 899.877 1336.7 455.699 1277.11 58.5339C1219.17 -334.476 1128.14 -662.156 978.896 -439.458C877.011 -287.411 800.987 -6.63675 379.389 -72.9192Z" stroke="currentColor" stroke-width="5" stroke-miterlimit="10"/>
<path d="M352.808 -84.7789C9.06035 -141.214 10.7545 649.675 215.664 915.335C476.241 1252.09 1042.47 707.964 1296.43 861.811C1400.7 924.97 1365.87 459.458 1300.99 44.1067C1237.67 -366.347 1131.12 -713.51 973.65 -475.062C865.756 -311.712 793.438 -11.2964 352.808 -84.7789Z" stroke="currentColor" stroke-width="5" stroke-miterlimit="10"/>
<path d="M326.233 -96.6638C-31.8886 -158.923 -27.6004 666.617 186.838 942.256C459.804 1292.41 1045.1 717.811 1310.97 882.591C1419.81 950.065 1395.17 463.349 1324.86 29.76C1256.04 -398.138 1133.67 -765.048 968.411 -510.612C854.349 -336.461 785.895 -15.9812 326.233 -96.6638Z" stroke="currentColor" stroke-width="5" stroke-miterlimit="10"/>
<path d="M299.658 -108.55C-72.837 -176.712 -66.0075 683.584 158.014 969.203C443.367 1332.88 1047.72 727.658 1325.5 903.291C1438.95 975.079 1424.21 467.054 1348.77 15.1476C1274.68 -430.115 1136.87 -816.295 963.171 -546.321C843.339 -360.762 778.406 -20.5348 299.658 -108.55Z" stroke="currentColor" stroke-width="5" stroke-miterlimit="10"/>
<path d="M957.903 -581.924C832.326 -385.089 770.782 -25.326 273.081 -120.409C-113.814 -194.341 -104.258 700.473 129.16 996.15C426.928 1373.3 1050.34 737.505 1340.03 924.176C1574.3 1075.16 1325.13 -1157.58 957.903 -581.924Z" stroke="currentColor" stroke-width="5" stroke-miterlimit="10"/>
</svg>
