<svg xmlns="http://www.w3.org/2000/svg" width="17" height="16" viewBox="0 0 17 16" fill="none">
<path d="M11.1666 8.60016V11.4002C11.1666 13.7335 10.2333 14.6668 7.89992 14.6668H5.09992C2.76659 14.6668 1.83325 13.7335 1.83325 11.4002V8.60016C1.83325 6.26683 2.76659 5.3335 5.09992 5.3335H7.89992C10.2333 5.3335 11.1666 6.26683 11.1666 8.60016Z" fill="currentColor"/>
<path d="M11.8998 1.3335H9.09984C7.04446 1.3335 6.0805 2.06289 5.87967 3.82617C5.83766 4.19506 6.14317 4.50016 6.51445 4.50016H7.89984C10.6998 4.50016 11.9998 5.80016 11.9998 8.60016V9.98556C11.9998 10.3568 12.3049 10.6623 12.6738 10.6203C14.4371 10.4195 15.1665 9.45555 15.1665 7.40016V4.60016C15.1665 2.26683 14.2332 1.3335 11.8998 1.3335Z" fill="currentColor" />
</svg>
