<svg xmlns="http://www.w3.org/2000/svg" width="16" height="15" viewBox="0 0 16 15" fill="none">
<rect width="14.4" height="14.4" transform="translate(0.799805 0.300049)" fill="white" fill-opacity="0.01"/>
<path fill-rule="evenodd" clip-rule="evenodd" d="M7.99969 2.21997C8.26478 2.21997 8.47969 2.43488 8.47969 2.69997V11.1412L11.5002 8.12056C11.6877 7.9331 11.9917 7.9331 12.1791 8.12056C12.3665 8.30801 12.3665 8.61193 12.1791 8.79938L8.3391 12.6394C8.24909 12.7294 8.127 12.78 7.99969 12.78C7.87238 12.78 7.75029 12.7294 7.66028 12.6394L3.82028 8.79938C3.63282 8.61193 3.63282 8.30801 3.82028 8.12056C4.00773 7.9331 4.31165 7.9331 4.4991 8.12056L7.51969 11.1412V2.69997C7.51969 2.43488 7.7346 2.21997 7.99969 2.21997Z" fill="currentColor"/>
</svg>
