<svg width="16" height="16" viewBox="0 0 16 16" fill="none" xmlns="http://www.w3.org/2000/svg">
<path opacity="0.4" d="M14.6666 8.00016C14.6666 11.6821 11.6818 14.6668 7.99992 14.6668C4.31802 14.6668 1.33325 11.6821 1.33325 8.00016C1.33325 4.31826 4.31802 1.3335 7.99992 1.3335C11.6818 1.3335 14.6666 4.31826 14.6666 8.00016Z" fill="white"/>
<path d="M11.9001 9.01988C11.8467 8.89988 11.7534 8.79987 11.6267 8.74654C11.5667 8.71987 11.5001 8.70654 11.4334 8.70654H4.56006C4.28673 8.70654 4.06006 8.93321 4.06006 9.20654C4.06006 9.47988 4.28673 9.70654 4.56006 9.70654H10.2267L9.05339 10.8799C8.86005 11.0732 8.86005 11.3932 9.05339 11.5865C9.15339 11.6865 9.28005 11.7332 9.40672 11.7332C9.53338 11.7332 9.66007 11.6865 9.76007 11.5865L11.7867 9.55988C11.8334 9.51321 11.8667 9.45988 11.8934 9.39988C11.9467 9.27988 11.9467 9.13988 11.9001 9.01988Z" fill="white"/>
<path d="M11.4334 6.28672H5.76673L6.94007 5.1134C7.1334 4.92007 7.1334 4.60005 6.94007 4.40672C6.74673 4.21339 6.42673 4.21339 6.2334 4.40672L4.20673 6.43339C4.16006 6.48006 4.12673 6.53341 4.10006 6.59341C4.04673 6.7134 4.04673 6.85339 4.10006 6.97339C4.15339 7.09339 4.24673 7.19339 4.37339 7.24673C4.43339 7.27339 4.50007 7.28672 4.56673 7.28672H11.4401C11.7134 7.28672 11.9401 7.06006 11.9401 6.78672C11.9401 6.51339 11.7134 6.28672 11.4334 6.28672Z" fill="white"/>
</svg>
