<svg xmlns="http://www.w3.org/2000/svg" width="81" height="81" viewBox="0 0 81 81" fill="none">
<path d="M81 40C81 62.0914 63.0914 80 41 80C18.9086 80 1 62.0914 1 40C1 17.9086 18.9086 0 41 0C63.0914 0 81 17.9086 81 40Z" fill="currentColor"/>
<path fill-rule="evenodd" clip-rule="evenodd" d="M57.6174 23.6174C56.7942 22.7942 55.4596 22.7942 54.6365 23.6174L41.1078 37.1461L27.5982 23.6365C26.7751 22.8133 25.4405 22.8133 24.6174 23.6365C23.7942 24.4596 23.7942 25.7942 24.6174 26.6174L38.1269 40.1269L25.0904 53.1634C24.2673 53.9865 24.2673 55.3211 25.0904 56.1443C25.9136 56.9674 27.2482 56.9674 28.0713 56.1443L41.1078 43.1078L54.1634 56.1634C54.9865 56.9865 56.3211 56.9865 57.1443 56.1634C57.9674 55.3403 57.9674 54.0057 57.1443 53.1825L44.0887 40.1269L57.6174 26.5982C58.4405 25.7751 58.4405 24.4405 57.6174 23.6174Z" fill="#282828"/>
</svg>
