<svg xmlns="http://www.w3.org/2000/svg" width="16" height="16" viewBox="0 0 16 16" fill="none">
  <g clip-path="url(#clip0_16_1796)">
    <path d="M8.00007 0.1875C3.58233 0.1875 0 3.76917 0 8.18757C0 11.7222 2.29226 14.721 5.47093 15.7788C5.87075 15.8529 6.01754 15.6053 6.01754 15.394C6.01754 15.2032 6.01012 14.573 6.00667 13.9045C3.78105 14.3885 3.31141 12.9606 3.31141 12.9606C2.9475 12.0359 2.42315 11.79 2.42315 11.79C1.6973 11.2935 2.47786 11.3037 2.47786 11.3037C3.28121 11.3601 3.70421 12.1281 3.70421 12.1281C4.41774 13.3512 5.57572 12.9976 6.03224 12.7932C6.10404 12.2761 6.31137 11.9232 6.54016 11.7234C4.76324 11.5211 2.8953 10.8351 2.8953 7.76973C2.8953 6.89631 3.20782 6.18265 3.71958 5.6224C3.63651 5.4209 3.36268 4.60722 3.79708 3.50527C3.79708 3.50527 4.46887 3.29026 5.99766 4.32531C6.63581 4.14805 7.32019 4.05916 8.00007 4.05612C8.67994 4.05916 9.36485 4.14805 10.0042 4.32531C11.5311 3.29026 12.202 3.50527 12.202 3.50527C12.6375 4.60722 12.3635 5.4209 12.2804 5.6224C12.7934 6.18265 13.1038 6.89631 13.1038 7.76973C13.1038 10.8424 11.2323 11.519 9.45083 11.717C9.73778 11.9653 9.99346 12.4522 9.99346 13.1985C9.99346 14.269 9.98419 15.1305 9.98419 15.394C9.98419 15.6068 10.1282 15.8563 10.5337 15.7777C13.7107 14.7187 16 11.721 16 8.18757C16 3.76917 12.4182 0.1875 8.00007 0.1875ZM2.99628 11.5838C2.97867 11.6235 2.91614 11.6354 2.85917 11.6081C2.80115 11.582 2.76856 11.5279 2.78737 11.488C2.80459 11.447 2.86725 11.4357 2.92514 11.4631C2.9833 11.4892 3.01642 11.5439 2.99628 11.5838ZM3.3898 11.9349C3.35165 11.9703 3.27706 11.9538 3.22645 11.8979C3.17413 11.8422 3.16432 11.7676 3.20301 11.7317C3.24235 11.6963 3.31468 11.7129 3.36715 11.7686C3.41947 11.8251 3.42968 11.8991 3.3898 11.9349ZM3.65977 12.3841C3.61075 12.4182 3.5306 12.3863 3.48105 12.3151C3.43204 12.244 3.43204 12.1587 3.48211 12.1245C3.53179 12.0903 3.61075 12.121 3.66096 12.1917C3.70984 12.264 3.70984 12.3493 3.65977 12.3841ZM4.11633 12.9044C4.07248 12.9528 3.97909 12.9398 3.91073 12.8738C3.84078 12.8093 3.82131 12.7178 3.86529 12.6694C3.90967 12.6209 4.0036 12.6346 4.07248 12.7C4.1419 12.7644 4.1631 12.8566 4.11633 12.9044ZM4.70641 13.0801C4.68707 13.1428 4.59711 13.1712 4.5065 13.1446C4.41602 13.1172 4.3568 13.0438 4.37508 12.9805C4.39389 12.9174 4.48424 12.8877 4.57552 12.9162C4.66587 12.9435 4.72522 13.0164 4.70641 13.0801ZM5.37793 13.1546C5.38019 13.2206 5.30335 13.2753 5.20823 13.2765C5.11258 13.2786 5.03521 13.2252 5.03415 13.1603C5.03415 13.0937 5.10927 13.0395 5.20492 13.0379C5.30004 13.036 5.37793 13.089 5.37793 13.1546ZM6.03763 13.1293C6.04903 13.1937 5.98292 13.2598 5.88846 13.2774C5.7956 13.2944 5.70962 13.2546 5.69783 13.1908C5.6863 13.1248 5.7536 13.0587 5.84634 13.0416C5.94093 13.0252 6.02558 13.0639 6.03763 13.1293Z" fill="currentColor"/>
  </g>
  <defs>
    <clipPath id="clip0_16_1796">
      <rect width="16" height="15.625" fill="white" transform="translate(0 0.1875)"/>
    </clipPath>
  </defs>
</svg>
