<svg xmlns="http://www.w3.org/2000/svg" width="16" height="16" viewBox="0 0 16 16" fill="none">
<rect width="16" height="16" fill="currentColor" fill-opacity="0.01"/>
<path fill-rule="evenodd" clip-rule="evenodd" d="M9.07986 3.20575C9.8013 2.71565 10.7135 2.70605 11.3912 3.15111C11.5451 3.25217 11.7094 3.41256 12.1487 3.85191C12.5881 4.29125 12.7485 4.45559 12.8495 4.60948C13.2946 5.28718 13.285 6.19936 12.7949 6.9208C12.683 7.08546 12.5099 7.26196 12.0544 7.71743L11.3945 8.3774C11.1863 8.58567 11.1863 8.92336 11.3945 9.13164C11.6028 9.33992 11.9405 9.33992 12.1487 9.13164L12.8087 8.47167L12.8545 8.42589C13.2488 8.03172 13.501 7.7795 13.6773 7.52019C14.3975 6.45996 14.4347 5.08 13.7411 4.02396C13.572 3.7664 13.3255 3.51999 12.9506 3.14527L12.903 3.09766L12.8554 3.05003C12.4807 2.67518 12.2343 2.42866 11.9767 2.25952C10.9207 1.56598 9.5407 1.60317 8.48047 2.32341C8.22116 2.49956 7.96893 2.75188 7.57475 3.14616L7.52899 3.19195L6.86902 3.85191C6.66073 4.06019 6.66073 4.39788 6.86902 4.60615C7.0773 4.81443 7.41498 4.81443 7.62326 4.60615L8.28323 3.94619C8.7387 3.49072 8.9152 3.3176 9.07986 3.20575ZM4.60628 7.62314C4.81456 7.41487 4.81456 7.07717 4.60628 6.86889C4.39799 6.66062 4.06031 6.66062 3.85203 6.86889L3.19206 7.52886L3.14629 7.57463C2.752 7.9688 2.49969 8.22103 2.32353 8.48035C1.60328 9.54058 1.56611 10.9205 2.25965 11.9766C2.42879 12.2341 2.67529 12.4805 3.05016 12.8552L3.09778 12.9029L3.14538 12.9505C3.5201 13.3253 3.76652 13.5719 4.02407 13.741C5.08013 14.4345 6.46007 14.3974 7.52031 13.6771C7.77961 13.501 8.03185 13.2486 8.42601 12.8544L8.47179 12.8086L9.13176 12.1487C9.34004 11.9403 9.34004 11.6026 9.13176 11.3944C8.92347 11.1861 8.58579 11.1861 8.37751 11.3944L7.71754 12.0544C7.26208 12.5098 7.08558 12.683 6.92093 12.7948C6.19947 13.2849 5.2873 13.2945 4.6096 12.8495C4.45572 12.7484 4.29138 12.5879 3.85203 12.1487C3.41268 11.7093 3.2523 11.5449 3.15123 11.391C2.70617 10.7134 2.71577 9.80118 3.20586 9.07973C3.31771 8.91508 3.49085 8.73858 3.94631 8.28311L4.60628 7.62314ZM10.2636 6.49126C10.4719 6.28298 10.4719 5.94529 10.2636 5.73701C10.0553 5.52873 9.71766 5.52873 9.50937 5.73701L5.73814 9.50825C5.52986 9.71653 5.52986 10.0542 5.73814 10.2625C5.94642 10.4708 6.2841 10.4708 6.49239 10.2625L10.2636 6.49126Z" fill="currentColor"/>
</svg>
