<svg xmlns="http://www.w3.org/2000/svg" width="16" height="16" viewBox="0 0 16 16" fill="none">
  <g clip-path="url(#clip0_16_1799)">
    <path d="M13.6 0H2.4C1.07452 0 0 1.07452 0 2.4V13.6C0 14.9255 1.07452 16 2.4 16H13.6C14.9255 16 16 14.9255 16 13.6V2.4C16 1.07452 14.9255 0 13.6 0Z" fill="currentColor"/>
    <path d="M3.90625 5.40625C3.90625 5.28125 3.84375 5.125 3.75 5.0625L2.78125 3.875V3.6875H5.84375L8.1875 8.875L10.2812 3.6875H13.1875V3.875L12.3438 4.6875C12.2812 4.71875 12.25 4.8125 12.25 4.90625V10.8438C12.25 10.9375 12.2812 11.0312 12.3438 11.0938L13.1875 11.875V12.0625H9.03125V11.875L9.875 11.0625C9.96875 10.9688 9.96875 10.9375 9.96875 10.8125V6.03125L7.59375 12.0312H7.28125L4.53125 6.03125V10.0625C4.5 10.2188 4.5625 10.4062 4.6875 10.5312L5.78125 11.875V12.0312H2.65625V11.875L3.75 10.5312C3.875 10.4062 3.9375 10.2188 3.90625 10.0625V5.40625Z" fill="black"/>
  </g>
  <defs>
    <clipPath id="clip0_16_1799">
      <rect width="16" height="16" fill="white"/>
    </clipPath>
  </defs>
</svg>
