<svg xmlns="http://www.w3.org/2000/svg" width="10" height="12" viewBox="0 0 10 12" fill="none">
<path d="M4.28913 0.666748H9.2669C9.4555 0.666748 9.63638 0.741669 9.76974 0.875028C9.9031 1.00839 9.97802 1.18926 9.97802 1.37786V9.20008H1.44468V9.91119H9.97802V10.6223C9.97802 10.8109 9.9031 10.9918 9.76974 11.1251C9.63638 11.2585 9.4555 11.3334 9.2669 11.3334H0.733572C0.544974 11.3334 0.3641 11.2585 0.230741 11.1251C0.0973814 10.9918 0.0224609 10.8109 0.0224609 10.6223V1.37786C0.0224609 1.18926 0.0973814 1.00839 0.230741 0.875028C0.3641 0.741669 0.544974 0.666748 0.733572 0.666748H1.44468V4.93341L2.86691 3.86675L4.28913 4.93341V0.666748Z" fill="currentColor"/>
</svg>
