<svg xmlns="http://www.w3.org/2000/svg" width="16" height="16" viewBox="0 0 16 16" fill="none">
  <path d="M14.9066 1.37066L0.416602 6.97785C0.407981 6.98117 0.399624 6.98514 0.391602 6.98973C0.274102 7.05629 -0.545898 7.55785 0.610352 8.00754L0.622227 8.01191L4.07254 9.1266C4.09886 9.13515 4.12674 9.13785 4.15421 9.1345C4.18169 9.13115 4.2081 9.12185 4.2316 9.10722L12.7894 3.76785C12.8104 3.75475 12.8338 3.74594 12.8582 3.74191C12.9772 3.72223 13.32 3.68535 13.1032 3.96066C12.8579 4.27316 7.01254 9.51129 6.36379 10.0922C6.32638 10.1258 6.30324 10.1724 6.2991 10.2225L6.01598 13.5975C6.01594 13.6319 6.02391 13.6658 6.03927 13.6966C6.05462 13.7273 6.07692 13.7541 6.10441 13.7747C6.14342 13.7993 6.1893 13.8107 6.23527 13.8072C6.28124 13.8037 6.32487 13.7855 6.35973 13.7554L8.40973 11.9232C8.44212 11.8942 8.48343 11.8772 8.5268 11.875C8.57017 11.8728 8.613 11.8855 8.64816 11.911L12.2247 14.5078L12.2363 14.5157C12.3229 14.5691 13.2579 15.1132 13.5279 13.8982L15.9966 2.1591C16 2.12191 16.0335 1.71316 15.7413 1.4716C15.4344 1.2191 15 1.3466 14.9347 1.36035C14.9251 1.36303 14.9157 1.36648 14.9066 1.37066Z" fill="currentColor"/>
</svg>
