<svg xmlns="http://www.w3.org/2000/svg" width="16" height="14" viewBox="0 0 16 14" fill="none">
<g clip-path="url(#clip0_16_1793)">
<path d="M16 2.05939C15.4113 2.32047 14.7787 2.49692 14.1146 2.57628C14.7924 2.17 15.3129 1.5267 15.558 0.760209C14.9237 1.13635 14.2212 1.40954 13.4735 1.55679C12.8747 0.91881 12.0216 0.520142 11.0774 0.520142C9.26454 0.520142 7.79475 1.98987 7.79475 3.80266C7.79475 4.05993 7.82384 4.31048 7.87979 4.55072C5.15162 4.41383 2.73286 3.10698 1.11384 1.12101C0.831281 1.60583 0.669403 2.16971 0.669403 2.77128C0.669403 3.91011 1.24897 4.91486 2.12976 5.5035C1.59163 5.48647 1.08551 5.33881 0.642891 5.09295C0.642657 5.10664 0.642657 5.1204 0.642657 5.13421C0.642657 6.72467 1.77417 8.05142 3.27585 8.35294C3.00037 8.42797 2.71038 8.46805 2.41097 8.46805C2.19947 8.46805 1.99381 8.44751 1.79342 8.40918C2.21111 9.71334 3.42339 10.6624 4.85981 10.6889C3.73638 11.5693 2.32096 12.0941 0.783057 12.0941C0.518117 12.0941 0.256805 12.0785 0 12.0482C1.45269 12.9796 3.17817 13.523 5.03193 13.523C11.0698 13.523 14.3715 8.52108 14.3715 4.1833C14.3715 4.04097 14.3683 3.8994 14.362 3.75865C15.0033 3.29584 15.5599 2.71768 16 2.05939Z" fill="currentColor"/>
</g>
<defs>
<clipPath id="clip0_16_1793">
<rect width="16" height="13.0625" fill="white" transform="translate(0 0.46875)"/>
</clipPath>
</defs>
</svg>
