<svg xmlns="http://www.w3.org/2000/svg" width="16" height="16" viewBox="0 0 16 12" fill="none">
  <g clip-path="url(#clip0_16_1804)">
    <path d="M15.6466 2.12967C15.4599 1.4395 14.9208 0.900376 14.2306 0.71362C12.989 0.375 7.99177 0.375 7.99177 0.375C7.99177 0.375 2.99456 0.385261 1.75295 0.723881C1.06279 0.910638 0.523658 1.44976 0.336902 2.13993C-0.0386584 4.34609 -0.184368 7.70767 0.347163 9.82558C0.53392 10.5157 1.07305 11.0549 1.76321 11.2416C3.00482 11.5802 8.00203 11.5802 8.00203 11.5802C8.00203 11.5802 12.9992 11.5802 14.2409 11.2416C14.931 11.0549 15.4701 10.5157 15.6569 9.82558C16.053 7.61634 16.1751 4.25682 15.6466 2.12967Z" fill="currentColor"/>
    <path d="M6.40137 8.37879L10.5469 5.97766L6.40137 3.57654V8.37879Z" fill="black"/>
  </g>
</svg>
